<svg width="32" height="32" viewBox="0 0 32 32" fill="none" xmlns="http://www.w3.org/2000/svg">
<path d="M16 2.66675C8.63619 2.66675 2.66666 8.63628 2.66666 16.0001C2.66666 23.3639 8.63619 29.3334 16 29.3334C23.3638 29.3334 29.3333 23.3639 29.3333 16.0001C29.3333 8.63628 23.3638 2.66675 16 2.66675Z" stroke="#082F1E" stroke-width="2.5" stroke-linecap="round" stroke-linejoin="round"/>
<path d="M17.8104 20.1553C19.6187 20.4685 21.2807 21.2438 22.5866 22.3834L24.1866 24.2523C24.9419 25.4502 25.3365 25.2982 25.3333 26.6667C25.3333 26.9765 24.9167 27.1143 24.6667 27.3333C24.4166 27.5524 24.3536 27.3333 24 27.3333C23.6464 27.3333 23.3357 28.3843 23.0856 28.1653C22.8356 27.9462 22.6666 28.4751 22.6666 28.1653C22.6666 26.6164 21.9643 25.1309 20.714 24.0356C19.4638 22.9404 17.7681 22.325 16 22.325C14.2319 22.325 12.5362 22.9404 11.2859 24.0356C10.0357 25.1309 9.33332 26.6164 9.33332 28.1653C9.33332 28.4751 9.19284 27.7809 8.9428 28C8.69275 28.2191 8.35361 26.3421 7.99999 26.3421C7.64637 26.3421 7.58337 27.5524 7.33332 27.3333C7.08327 27.1143 6.66666 26.9765 6.66666 26.6667C6.66915 25.0519 7.21742 24.9725 8.24231 23.6303C9.2672 22.2881 10.7228 21.2418 12.4256 20.6234C14.1284 20.0049 16.0021 19.8421 17.8104 20.1553Z" fill="#082F1E"/>
<path d="M16 18.6667C17.0548 18.6667 18.086 18.3539 18.963 17.7678C19.8401 17.1818 20.5237 16.3489 20.9273 15.3743C21.331 14.3998 21.4366 13.3274 21.2308 12.2929C21.0251 11.2583 20.5171 10.308 19.7712 9.5621C19.0253 8.81622 18.075 8.30827 17.0405 8.10248C16.0059 7.89669 14.9335 8.00231 13.959 8.40598C12.9845 8.80965 12.1515 9.49323 11.5655 10.3703C10.9795 11.2474 10.6667 12.2785 10.6667 13.3333C10.6667 14.7478 11.2286 16.1044 12.2288 17.1046C13.2289 18.1048 14.5855 18.6667 16 18.6667ZM16 10.6667C16.5274 10.6667 17.043 10.8231 17.4815 11.1161C17.92 11.4091 18.2618 11.8256 18.4637 12.3128C18.6655 12.8001 18.7183 13.3363 18.6154 13.8536C18.5125 14.3709 18.2585 14.846 17.8856 15.219C17.5127 15.5919 17.0375 15.8459 16.5202 15.9488C16.0029 16.0517 15.4668 15.9988 14.9795 15.797C14.4922 15.5952 14.0758 15.2534 13.7827 14.8149C13.4897 14.3763 13.3333 13.8608 13.3333 13.3333C13.3333 12.6261 13.6143 11.9478 14.1144 11.4477C14.6145 10.9476 15.2927 10.6667 16 10.6667Z" fill="#082F1E"/>
</svg>
