<svg width="40" height="41" viewBox="0 0 40 41" fill="none" xmlns="http://www.w3.org/2000/svg">
<path d="M19.9144 15.4547C20.6598 13.7779 22.1651 12.6316 23.9008 12.6316C25.778 12.6316 27.3857 13.9724 28.0541 15.875C28.5719 15.6323 29.1378 15.4986 29.7304 15.4986C32.1053 15.4986 34.049 17.6447 34.2047 20.3595C36.3761 21.1619 37.8945 23.0014 37.8945 25.1423C37.8945 26.5991 37.1914 27.9164 36.0579 28.8622C36.3439 29.5485 36.5044 30.3187 36.5044 31.1325C36.5044 34.0115 34.4967 36.3453 32.02 36.3453C31.4274 36.3453 30.8616 36.2116 30.3437 35.9689C29.6754 37.8715 28.0676 39.2123 26.1904 39.2123C25.0433 39.2123 23.9969 38.7117 23.2039 37.8881C22.4018 38.7627 21.323 39.2983 20.1366 39.2983C18.85 39.2983 17.69 38.6684 16.8722 37.6595C16.059 38.6181 14.9288 39.2123 13.6791 39.2123C11.7706 39.2123 10.1405 37.8263 9.49313 35.873C8.9245 36.1762 8.29191 36.3453 7.62535 36.3453C5.14872 36.3453 3.14102 34.0115 3.14102 31.1325C3.14102 30.299 3.30933 29.5111 3.6086 28.8124C2.24505 27.8791 1.40332 26.5967 1.40332 25.1815C1.40332 23.2233 3.01475 21.5196 5.39022 20.6429C5.42175 17.7955 7.4172 15.4986 9.87416 15.4986C10.5407 15.4986 11.1733 15.6677 11.7419 15.9709C12.3893 14.0176 14.0194 12.6316 15.9279 12.6316C17.6636 12.6316 19.169 13.7779 19.9144 15.4547Z" fill="#463424"/>
<g style="mix-blend-mode:multiply">
<path fill-rule="evenodd" clip-rule="evenodd" d="M1.74831 24.7443C1.72935 24.8903 1.71967 25.038 1.71967 25.1872C1.71967 26.4839 2.45046 27.6665 3.65192 28.5614C3.72033 28.3169 3.80436 28.0805 3.90266 27.8536C2.69836 27.039 1.90527 25.9525 1.74831 24.7443ZM3.45631 30.5663C3.44539 30.7123 3.43981 30.86 3.43981 31.0092C3.43981 33.8257 5.42722 36.1089 7.87882 36.1089C8.53864 36.1089 9.16484 35.9435 9.72772 35.6469C10.3686 37.5579 11.9822 38.9138 13.8714 38.9138C15.1084 38.9138 16.2273 38.3325 17.0323 37.3947C17.8418 38.3817 18.9901 38.9979 20.2636 38.9979C21.4381 38.9979 22.506 38.4739 23.2999 37.6183C24.0849 38.424 25.1208 38.9138 26.2562 38.9138C28.1145 38.9138 29.706 37.6021 30.3676 35.7407C30.8802 35.9782 31.4403 36.1089 32.027 36.1089C34.4786 36.1089 36.466 33.8257 36.466 31.0092C36.466 30.86 36.4604 30.7123 36.4495 30.5663C36.2541 33.1755 34.3487 35.2232 32.027 35.2232C31.4403 35.2232 30.8802 35.0925 30.3676 34.8549C29.706 36.7164 28.1145 38.0281 26.2562 38.0281C25.1208 38.0281 24.0849 37.5383 23.2999 36.7326C22.506 37.5882 21.4381 38.1121 20.2636 38.1121C18.9901 38.1121 17.8418 37.496 17.0323 36.5089C16.2273 37.4468 15.1084 38.0281 13.8714 38.0281C11.9822 38.0281 10.3686 36.6721 9.72772 34.7612C9.16484 35.0578 8.53864 35.2232 7.87882 35.2232C5.55709 35.2232 3.65168 33.1755 3.45631 30.5663ZM36.2598 28.5826C37.2428 27.6764 37.8421 26.4714 37.8421 25.1488C37.8421 24.9996 37.8345 24.8519 37.8195 24.706C37.6917 25.9542 37.0286 27.0739 36.024 27.9024C36.1161 28.1209 36.1951 28.3481 36.2598 28.5826Z" fill="#463424"/>
</g>
<path d="M4.9205 5.24811C5.25784 4.52363 6.20157 4.63035 6.44197 5.39252C7.22293 7.86854 8.49817 10.6512 14.1289 9.86794L8.71595 15.0171C3.68891 12.9484 3.06933 9.2237 4.9205 5.24811Z" fill="#FADD9D"/>
<path d="M34.8559 5.24811C34.5185 4.52363 33.5748 4.63035 33.3344 5.39252C32.5534 7.86854 31.2782 10.6512 25.6475 9.86794L31.0604 15.0171C36.0875 12.9484 36.707 9.2237 34.8559 5.24811Z" fill="#FADD9D"/>
<ellipse cx="5.44852" cy="3.2198" rx="5.44852" ry="3.2198" transform="matrix(0.863045 -0.505127 0.512897 0.85845 0 17.4729)" fill="#AE8964"/>
<ellipse cx="3.8979" cy="2.30346" rx="3.8979" ry="2.30346" transform="matrix(0.863045 -0.505127 0.512897 0.85845 1.78027 17.5542)" fill="#F8C9DD"/>
<ellipse cx="5.44852" cy="3.2198" rx="5.44852" ry="3.2198" transform="matrix(-0.863045 -0.505127 -0.512897 0.85845 40 17.3408)" fill="#AE8964"/>
<ellipse cx="3.8979" cy="2.30346" rx="3.8979" ry="2.30346" transform="matrix(-0.863045 -0.505127 -0.512897 0.85845 38.1641 17.5542)" fill="#F8C9DD"/>
<rect x="6.31543" y="4.21057" width="27.3684" height="30.8772" rx="13.6842" fill="#AE8964"/>
<path fill-rule="evenodd" clip-rule="evenodd" d="M31.1748 28.9849C28.7203 32.6004 24.5758 34.9757 19.8765 34.9757C15.1772 34.9757 11.0327 32.6003 8.57812 28.9848C10.2907 26.8497 12.9215 25.4827 15.8715 25.4827H23.8813C26.8314 25.4827 29.4622 26.8497 31.1748 28.9849Z" fill="#7F5939"/>
<ellipse cx="13.9427" cy="28.9042" rx="0.889973" ry="1.33496" fill="black"/>
<ellipse cx="25.8089" cy="28.9042" rx="0.889973" ry="1.33496" fill="black"/>
<ellipse cx="10.4806" cy="25.0142" rx="1.28435" ry="0.748137" fill="#F8C9DD"/>
<ellipse cx="29.425" cy="25.0142" rx="1.28435" ry="0.748137" fill="#F8C9DD"/>
<ellipse cx="2.0068" cy="2.29349" rx="2.0068" ry="2.29349" transform="matrix(-1 0 0 1 14.0479 19.2229)" fill="#082F1E"/>
<ellipse cx="11.4505" cy="20.7921" rx="0.708283" ry="0.84497" fill="white"/>
<ellipse cx="12.7788" cy="22.2591" rx="0.383306" ry="0.380521" fill="white"/>
<ellipse cx="2.0068" cy="2.29349" rx="2.0068" ry="2.29349" transform="matrix(-1 0 0 1 29.9629 19.2229)" fill="#082F1E"/>
<ellipse cx="27.3655" cy="20.7921" rx="0.708283" ry="0.844969" fill="white"/>
<ellipse cx="28.6939" cy="22.2591" rx="0.383306" ry="0.380521" fill="white"/>
<path fill-rule="evenodd" clip-rule="evenodd" d="M20.1226 2.03339C20.6789 0.825614 21.8024 0 23.0978 0C24.4988 0 25.6988 0.965754 26.1976 2.33623C26.5841 2.16138 27.0063 2.06512 27.4486 2.06512C29.2211 2.06512 30.6718 3.61092 30.788 5.56643C32.4086 6.14443 33.5418 7.46936 33.5418 9.01141C33.5418 10.0608 33.017 11.0097 32.1709 11.691C32.3844 12.1854 32.5041 12.7401 32.5041 13.3263C32.5041 15.4 31.0057 17.081 29.1573 17.081C28.7149 17.081 28.2926 16.9848 27.9061 16.8099C27.4073 18.1804 26.2073 19.1462 24.8062 19.1462C23.9502 19.1462 23.1692 18.7856 22.5773 18.1924C21.9788 18.8223 21.1736 19.208 20.2882 19.208C19.328 19.208 18.4623 18.7544 17.8519 18.0278C17.245 18.7182 16.4015 19.1461 15.4689 19.1461C14.0444 19.1461 12.8278 18.1478 12.3447 16.7408C11.9203 16.9592 11.4481 17.081 10.9506 17.081C9.10219 17.081 7.60375 15.3999 7.60375 13.3262C7.60375 12.7258 7.72936 12.1583 7.95271 11.655C6.93496 10.9828 6.30669 10.0591 6.30669 9.03967C6.30669 7.62916 7.50947 6.4019 9.2825 5.77046C9.30608 3.71954 10.7954 2.06512 12.6291 2.06512C13.1266 2.06512 13.5987 2.1869 14.0231 2.40533C14.5063 0.998326 15.7229 0 17.1474 0C18.4427 0 19.5662 0.825614 20.1226 2.03339Z" fill="#4D3A2A"/>
<g style="mix-blend-mode:multiply">
<path fill-rule="evenodd" clip-rule="evenodd" d="M6.3739 8.46643C6.32962 8.65329 6.30664 8.84474 6.30664 9.03969C6.30664 9.96486 6.8241 10.8112 7.68053 11.4623C7.73975 11.1488 7.83188 10.8494 7.95255 10.5694C7.12949 10.0095 6.56117 9.28025 6.3739 8.46643ZM7.63421 12.816C7.61401 12.9828 7.60357 13.1531 7.60357 13.3262C7.60357 15.3999 9.10201 17.081 10.9504 17.081C11.4479 17.081 11.9201 16.9592 12.3445 16.7408C12.8276 18.1478 14.0442 19.1461 15.4687 19.1461C16.4013 19.1461 17.2449 18.7181 17.8518 18.0276C18.4622 18.7543 19.328 19.208 20.2882 19.208C21.1737 19.208 21.9789 18.8222 22.5775 18.1923C23.1693 18.7855 23.9503 19.1461 24.8064 19.1461C26.2075 19.1461 27.4074 18.1803 27.9062 16.8098C28.2927 16.9847 28.715 17.081 29.1574 17.081C31.0058 17.081 32.5043 15.3999 32.5043 13.3262C32.5043 13.1531 32.4938 12.9828 32.4736 12.816C32.2517 14.703 30.8516 16.1574 29.1574 16.1574C28.715 16.1574 28.2927 16.0582 27.9062 15.8781C27.4074 17.2895 26.2075 18.2841 24.8064 18.2841C23.9503 18.2841 23.1693 17.9128 22.5775 17.3019C21.9789 17.9506 21.1737 18.3479 20.2882 18.3479C19.328 18.3479 18.4622 17.8807 17.8518 17.1323C17.2449 17.8434 16.4013 18.2841 15.4687 18.2841C14.0442 18.2841 12.8276 17.256 12.3445 15.807C11.9201 16.032 11.4479 16.1574 10.9504 16.1574C9.25627 16.1574 7.85611 14.703 7.63421 12.816ZM32.4281 11.4663C33.122 10.8081 33.5418 9.94997 33.5418 9.01142C33.5418 8.81636 33.5237 8.62478 33.4887 8.43774C33.3356 9.28138 32.8598 10.0352 32.171 10.6064C32.2845 10.877 32.3715 11.1651 32.4281 11.4663Z" fill="#4D3A2A"/>
</g>
<path d="M23.3749 33.5211C22.2235 32.8519 20.2199 33.3568 20.2199 33.3568C20.2199 33.3568 20.7727 35.3478 21.9241 36.017C23.0756 36.6863 25.0791 36.1813 25.0791 36.1813C25.0791 36.1813 24.5263 34.1904 23.3749 33.5211Z" fill="#A6C94B"/>
<path d="M22.8191 38.1109C23.5592 37.5397 25.0173 37.7301 25.0173 37.7301C25.0173 37.7301 24.8321 39.1889 24.092 39.7601C23.3518 40.3314 21.8938 40.1409 21.8938 40.1409C21.8938 40.1409 22.0789 38.6822 22.8191 38.1109Z" fill="#A6C94B"/>
<path d="M15.4385 31.5789C17.0972 34.3859 22.9947 34.3859 24.5613 31.5789" stroke="black" stroke-width="1.94203" stroke-linecap="round" stroke-linejoin="round"/>
<path d="M15.4457 10.0623C16.6974 9.24622 17.2063 6.98957 17.2063 6.98957C17.2063 6.98957 14.9361 6.54469 13.6844 7.36075C12.4327 8.1768 11.9239 10.4335 11.9239 10.4335C11.9239 10.4335 14.194 10.8783 15.4457 10.0623Z" fill="#A6C94B"/>
<path d="M23.6585 12.4913C22.4444 11.3883 19.8842 11.4984 19.8842 11.4984C19.8842 11.4984 20.0195 14.0574 21.2335 15.1604C22.4476 16.2635 25.0079 16.1533 25.0079 16.1533C25.0079 16.1533 24.8726 13.5943 23.6585 12.4913Z" fill="#A6C94B"/>
</svg>
