<svg width="23" height="6" viewBox="0 0 23 6" fill="none" xmlns="http://www.w3.org/2000/svg">
<path d="M3.03846 5.5C2.36522 5.5 1.71955 5.23661 1.2435 4.76777C0.767444 4.29893 0.5 3.66304 0.5 3C0.5 2.33696 0.767444 1.70107 1.2435 1.23223C1.71955 0.763392 2.36522 0.5 3.03846 0.5C3.7117 0.5 4.35737 0.763392 4.83343 1.23223C5.30948 1.70107 5.57692 2.33696 5.57692 3C5.57692 3.66304 5.30948 4.29893 4.83343 4.76777C4.35737 5.23661 3.7117 5.5 3.03846 5.5ZM11.5 5.5C10.8268 5.5 10.1811 5.23661 9.70504 4.76777C9.22898 4.29893 8.96154 3.66304 8.96154 3C8.96154 2.33696 9.22898 1.70107 9.70504 1.23223C10.1811 0.763392 10.8268 0.5 11.5 0.5C12.1732 0.5 12.8189 0.763392 13.295 1.23223C13.771 1.70107 14.0385 2.33696 14.0385 3C14.0385 3.66304 13.771 4.29893 13.295 4.76777C12.8189 5.23661 12.1732 5.5 11.5 5.5ZM19.9615 5.5C19.2883 5.5 18.6426 5.23661 18.1666 4.76777C17.6905 4.29893 17.4231 3.66304 17.4231 3C17.4231 2.33696 17.6905 1.70107 18.1666 1.23223C18.6426 0.763392 19.2883 0.5 19.9615 0.5C20.6348 0.5 21.2804 0.763392 21.7565 1.23223C22.2326 1.70107 22.5 2.33696 22.5 3C22.5 3.66304 22.2326 4.29893 21.7565 4.76777C21.2804 5.23661 20.6348 5.5 19.9615 5.5Z" fill="black"/>
</svg>
