<svg width="33" height="32" viewBox="0 0 33 32" fill="none" xmlns="http://www.w3.org/2000/svg">
<g clip-path="url(#clip0_597_21272)">
<path d="M8.62002 28.08C8.2664 28.08 7.92726 27.9395 7.67722 27.6895C7.42717 27.4394 7.28669 27.1003 7.28669 26.7467L7.08669 7.2C7.07064 6.80313 7.1332 6.40699 7.27079 6.03439C7.40838 5.66178 7.61827 5.32005 7.88841 5.02885C8.15854 4.73766 8.48357 4.50274 8.84482 4.33761C9.20607 4.17248 9.5964 4.0804 9.99336 4.06667L22.78 4C23.1775 4.00694 23.5697 4.09212 23.9343 4.25068C24.2989 4.40923 24.6286 4.63805 24.9047 4.92407C25.1808 5.21008 25.3979 5.54769 25.5435 5.91761C25.6891 6.28753 25.7604 6.68252 25.7534 7.08L25.94 26.6267C25.9423 26.8603 25.8832 27.0905 25.7685 27.294C25.6538 27.4976 25.4877 27.6675 25.2867 27.7867C25.084 27.9037 24.8541 27.9653 24.62 27.9653C24.386 27.9653 24.156 27.9037 23.9534 27.7867L16.3534 23.5733L9.30002 27.88C9.09116 27.9967 8.85879 28.065 8.62002 28.08V28.08ZM16.3 20.68C16.5317 20.6804 16.7601 20.7352 16.9667 20.84L23.2467 24.32L23.0867 7.05333C23.0867 6.78667 22.9134 6.6 22.8067 6.61333L10.0067 6.73333C9.90002 6.73333 9.75336 6.90667 9.75336 7.17333L9.91336 24.3733L15.62 20.8667C15.8273 20.748 16.0612 20.6838 16.3 20.68V20.68Z" fill="#082F1E"/>
</g>
<defs>
<clipPath id="clip0_597_21272">
<rect width="32" height="32" fill="white" transform="translate(0.5)"/>
</clipPath>
</defs>
</svg>
