<svg width="32" height="32" viewBox="0 0 32 32" fill="none" xmlns="http://www.w3.org/2000/svg">
<g clip-path="url(#clip0_298_7702)">
<path d="M27.2267 13.5734L16.9467 3.06676C16.8227 2.94179 16.6753 2.8426 16.5128 2.77491C16.3503 2.70721 16.176 2.67236 16 2.67236C15.824 2.67236 15.6497 2.70721 15.4872 2.77491C15.3248 2.8426 15.1773 2.94179 15.0533 3.06676L4.77333 13.5868C4.52458 13.8375 4.32813 14.1352 4.19537 14.4625C4.06262 14.7898 3.99621 15.1402 4 15.4934V26.6668C3.99897 27.3493 4.2597 28.0063 4.7285 28.5024C5.1973 28.9984 5.83848 29.2959 6.52 29.3334H25.48C26.1615 29.2959 26.8027 28.9984 27.2715 28.5024C27.7403 28.0063 28.001 27.3493 28 26.6668V15.4934C28.0011 14.7773 27.7238 14.0889 27.2267 13.5734ZM13.3333 26.6668V18.6668H18.6667V26.6668H13.3333ZM25.3333 26.6668H21.3333V17.3334C21.3333 16.9798 21.1929 16.6407 20.9428 16.3906C20.6928 16.1406 20.3536 16.0001 20 16.0001H12C11.6464 16.0001 11.3072 16.1406 11.0572 16.3906C10.8071 16.6407 10.6667 16.9798 10.6667 17.3334V26.6668H6.66667V15.4401L16 5.90676L25.3333 15.4934V26.6668Z" fill="#082F1E"/>
</g>
<defs>
<clipPath id="clip0_298_7702">
<rect width="32" height="32" fill="white"/>
</clipPath>
</defs>
</svg>
