<svg width="24" height="20" viewBox="0 0 24 20" fill="none" xmlns="http://www.w3.org/2000/svg">
<mask id="path-1-inside-1_653_14444" fill="white">
<path d="M11.5524 19.9134C11.6945 19.9715 11.8467 20.0009 12.0003 20C12.1538 20.0009 12.306 19.9715 12.4481 19.9134C12.5903 19.8554 12.7196 19.7698 12.8286 19.6617L21.8936 10.585C23.0307 9.43606 23.6685 7.88485 23.6685 6.26835C23.6685 4.65186 23.0307 3.10065 21.8936 1.95169C20.7476 0.808949 19.1953 0.167236 17.5769 0.167236C15.9586 0.167236 14.4062 0.808949 13.2603 1.95169L12.0003 3.21169L10.7403 1.95169C9.59429 0.808949 8.04195 0.167236 6.42359 0.167236C4.80523 0.167236 3.2529 0.808949 2.10692 1.95169C0.969846 3.10065 0.332031 4.65186 0.332031 6.26835C0.332031 7.88485 0.969846 9.43606 2.10692 10.585L11.1719 19.6617C11.2809 19.7698 11.4102 19.8554 11.5524 19.9134Z"/>
</mask>
<path d="M11.5524 19.9134C11.6945 19.9715 11.8467 20.0009 12.0003 20C12.1538 20.0009 12.306 19.9715 12.4481 19.9134C12.5903 19.8554 12.7196 19.7698 12.8286 19.6617L21.8936 10.585C23.0307 9.43606 23.6685 7.88485 23.6685 6.26835C23.6685 4.65186 23.0307 3.10065 21.8936 1.95169C20.7476 0.808949 19.1953 0.167236 17.5769 0.167236C15.9586 0.167236 14.4062 0.808949 13.2603 1.95169L12.0003 3.21169L10.7403 1.95169C9.59429 0.808949 8.04195 0.167236 6.42359 0.167236C4.80523 0.167236 3.2529 0.808949 2.10692 1.95169C0.969846 3.10065 0.332031 4.65186 0.332031 6.26835C0.332031 7.88485 0.969846 9.43606 2.10692 10.585L11.1719 19.6617C11.2809 19.7698 11.4102 19.8554 11.5524 19.9134Z" fill="#FF233D"/>
<path d="M12.0003 20L12.006 19L11.9945 19L12.0003 20ZM11.5524 19.9134L11.1742 20.8392L11.1742 20.8392L11.5524 19.9134ZM11.1719 19.6617L10.4644 20.3683L10.4677 20.3717L11.1719 19.6617ZM2.10692 10.585L1.39614 11.2885L1.39936 11.2917L2.10692 10.585ZM2.10692 1.95169L1.4008 1.24357L1.39615 1.24826L2.10692 1.95169ZM10.7403 1.95169L11.4474 1.24458L11.4464 1.24358L10.7403 1.95169ZM12.0003 3.21169L11.2932 3.91879L12.0003 4.6259L12.7074 3.91879L12.0003 3.21169ZM13.2603 1.95169L12.5541 1.24358L12.5531 1.24458L13.2603 1.95169ZM21.8936 1.95169L22.6044 1.24825L22.5997 1.24358L21.8936 1.95169ZM21.8936 10.585L22.6012 11.2917L22.6044 11.2884L21.8936 10.585ZM12.8286 19.6617L13.5328 20.3717L13.5362 20.3683L12.8286 19.6617ZM12.4481 19.9134L12.8263 20.8392L12.8263 20.8392L12.4481 19.9134ZM11.9945 19C11.9725 19.0002 11.9508 18.996 11.9305 18.9877L11.1742 20.8392C11.4382 20.947 11.7209 21.0017 12.006 21L11.9945 19ZM11.9305 18.9877C11.9102 18.9794 11.8917 18.9672 11.8761 18.9517L10.4677 20.3717C10.6702 20.5725 10.9103 20.7313 11.1742 20.8392L11.9305 18.9877ZM11.8795 18.955L2.81449 9.87837L1.39936 11.2917L10.4644 20.3683L11.8795 18.955ZM2.8177 9.8816C1.86591 8.91987 1.33203 7.62143 1.33203 6.26835H-0.667969C-0.667969 8.14826 0.0737807 9.95225 1.39615 11.2884L2.8177 9.8816ZM1.33203 6.26835C1.33203 4.91527 1.86591 3.61684 2.8177 2.65511L1.39615 1.24826C0.073781 2.58445 -0.667969 4.38844 -0.667969 6.26835H1.33203ZM2.81303 2.65979C3.77155 1.70398 5.06995 1.16724 6.42359 1.16724V-0.832764C4.5405 -0.832764 2.73424 -0.0860819 1.40082 1.24358L2.81303 2.65979ZM6.42359 1.16724C7.77723 1.16724 9.07563 1.70398 10.0342 2.65979L11.4464 1.24358C10.1129 -0.086082 8.30668 -0.832764 6.42359 -0.832764V1.16724ZM10.0332 2.65879L11.2932 3.91879L12.7074 2.50458L11.4474 1.24458L10.0332 2.65879ZM12.7074 3.91879L13.9674 2.65879L12.5531 1.24458L11.2932 2.50458L12.7074 3.91879ZM13.9664 2.65979C14.9249 1.70398 16.2233 1.16724 17.5769 1.16724V-0.832764C15.6938 -0.832764 13.8876 -0.0860819 12.5542 1.24358L13.9664 2.65979ZM17.5769 1.16724C18.9306 1.16724 20.229 1.70398 21.1875 2.65979L22.5997 1.24358C21.2663 -0.0860819 19.46 -0.832764 17.5769 -0.832764V1.16724ZM21.1828 2.65511C22.1346 3.61684 22.6685 4.91527 22.6685 6.26835H24.6685C24.6685 4.38844 23.9267 2.58445 22.6044 1.24826L21.1828 2.65511ZM22.6685 6.26835C22.6685 7.62143 22.1346 8.91987 21.1828 9.8816L22.6044 11.2884C23.9267 9.95225 24.6685 8.14826 24.6685 6.26835H22.6685ZM21.186 9.87837L12.121 18.955L13.5362 20.3683L22.6012 11.2917L21.186 9.87837ZM12.1244 18.9517C12.1088 18.9672 12.0903 18.9794 12.07 18.9877L12.8263 20.8392C13.0903 20.7313 13.3304 20.5725 13.5328 20.3717L12.1244 18.9517ZM12.07 18.9877C12.0497 18.996 12.028 19.0002 12.006 19L11.9945 21C12.2796 21.0017 12.5623 20.947 12.8263 20.8392L12.07 18.9877Z" fill="#FF233D" mask="url(#path-1-inside-1_653_14444)"/>
</svg>
