<svg width="62" height="34" viewBox="0 0 62 34" fill="none" xmlns="http://www.w3.org/2000/svg">
<g clip-path="url(#clip0_288_6479)">
<path d="M5.42183 2.94013C5.42183 2.71217 5.5738 2.4959 5.87775 2.27963C6.1817 2.06336 6.59085 1.87047 7.10522 1.69512C7.61959 1.51977 8.20995 1.37948 8.87629 1.27427C9.54263 1.16906 10.244 1.11646 10.9747 1.11646C11.9859 1.11646 12.9036 1.25089 13.7102 1.51392C14.5168 1.77695 15.2124 2.15104 15.7794 2.63034C16.3463 3.10964 16.7847 3.6883 17.0945 4.36633C17.4043 5.04437 17.5563 5.79254 17.5563 6.6167C17.5563 7.49346 17.416 8.26502 17.1354 8.93136C16.8549 9.5977 16.4574 10.153 15.9372 10.5972C15.417 11.0414 14.7974 11.3746 14.0667 11.5967C13.3361 11.8188 12.5295 11.9299 11.6352 11.9299C11.4072 11.9299 11.1734 11.9124 10.9338 11.8831C10.6941 11.8539 10.4662 11.813 10.2557 11.7721C10.0453 11.7312 9.85242 11.6844 9.68876 11.6376C9.5251 11.5909 9.40235 11.5558 9.32636 11.5207C9.30298 11.5441 9.28545 11.5675 9.26791 11.6026C9.25038 11.6376 9.24453 11.6844 9.24453 11.7487C9.24453 11.8247 9.2796 11.8948 9.3439 11.965C9.40819 12.0351 9.5251 12.0936 9.68876 12.152C9.85242 12.2105 10.0745 12.2572 10.3493 12.2981C10.624 12.3391 10.9805 12.38 11.4014 12.4034V13.9757C11.2377 14.1101 11.039 14.2329 10.811 14.3381C10.5831 14.4433 10.3376 14.5368 10.0745 14.6128C9.81151 14.6888 9.54263 14.7472 9.25622 14.7823C8.96981 14.8174 8.68925 14.8408 8.40868 14.8408C8.01706 14.8408 7.64297 14.7998 7.28058 14.7239C6.91818 14.6479 6.5967 14.5193 6.32198 14.3498C6.04726 14.1803 5.8193 13.9581 5.65564 13.6893C5.49197 13.4204 5.4043 13.0931 5.4043 12.719V2.94013H5.42183ZM11.1676 7.7448C11.1676 7.7448 11.2202 7.76818 11.2669 7.76818C11.3137 7.76818 11.3429 7.76818 11.3546 7.76818C11.5183 7.76818 11.6352 7.71558 11.7053 7.61621C11.7755 7.51684 11.8105 7.34734 11.8105 7.11353V6.33029C11.8105 6.09064 11.7813 5.91529 11.7229 5.80423C11.6644 5.69317 11.5592 5.64057 11.4014 5.64057C11.3663 5.64057 11.3254 5.64057 11.2786 5.65226C11.2319 5.66395 11.1909 5.66979 11.1676 5.68148C11.1734 5.73409 11.1793 5.79254 11.1793 5.85684V7.73896L11.1676 7.7448Z" fill="#082F1E"/>
<path d="M18.4328 0.485144C18.5848 0.409157 18.766 0.339016 18.9705 0.26303C19.1751 0.187043 19.4148 0.128592 19.6836 0.0759864C19.9525 0.0233804 20.2331 0 20.537 0C21.028 0 21.4547 0.0526059 21.8054 0.163663C22.1561 0.27472 22.4484 0.426693 22.6763 0.619581C22.9043 0.812469 23.0679 1.05212 23.1732 1.32099C23.2784 1.58987 23.331 1.89966 23.331 2.23283V9.45738C23.331 9.93083 23.3836 10.3341 23.483 10.6732C23.5823 11.0122 23.7811 11.2694 24.0675 11.4506C24.0733 11.5032 24.0792 11.5733 24.0792 11.6493V11.8305C24.0792 12.8242 23.8278 13.5723 23.3251 14.0692C22.8225 14.566 22.121 14.8173 21.2267 14.8173C20.8234 14.8173 20.4318 14.7589 20.0577 14.642C19.6836 14.5251 19.3505 14.3322 19.0582 14.0575C18.766 13.7828 18.538 13.4262 18.3626 12.9761C18.1873 12.5261 18.0996 11.9766 18.0996 11.322V0.654652C18.1698 0.613736 18.275 0.555285 18.4269 0.479299L18.4328 0.485144Z" fill="#082F1E"/>
<path d="M34.9214 9.55675C34.9214 10.0302 34.974 10.4218 35.0734 10.7258C35.1727 11.0297 35.3715 11.2752 35.6579 11.4564C35.6637 11.509 35.6696 11.5792 35.6696 11.6551V11.8363C35.6696 12.3566 35.5877 12.8066 35.4241 13.1807C35.2604 13.5548 35.0441 13.8646 34.7811 14.1101C34.5181 14.3556 34.22 14.5309 33.881 14.6478C33.5419 14.7647 33.2029 14.8232 32.8522 14.8232C32.6067 14.8232 32.3671 14.794 32.1274 14.7355C31.8878 14.6771 31.6657 14.5894 31.4611 14.4725C31.2565 14.3556 31.0636 14.2095 30.8941 14.0283C30.7246 13.8471 30.596 13.6308 30.4967 13.3853C30.3797 13.3853 30.2921 13.4145 30.2336 13.4788C30.1752 13.5431 30.1459 13.6249 30.1459 13.7243C30.1459 13.8178 30.1752 13.923 30.2395 14.0341C30.3038 14.1452 30.3914 14.2562 30.5083 14.3731C30.2862 14.5251 29.994 14.6361 29.6257 14.7121C29.2575 14.7881 28.8776 14.8232 28.4976 14.8232C27.8722 14.8232 27.3052 14.7355 26.7967 14.566C26.2882 14.3965 25.8498 14.1393 25.4815 13.8061C25.1133 13.473 24.8327 13.0638 24.6282 12.5787C24.4236 12.0935 24.3242 11.5382 24.3242 10.907C24.3242 10.2757 24.4294 9.69118 24.6457 9.21773C24.862 8.74428 25.1542 8.34681 25.5225 8.03702C25.8907 7.72723 26.3232 7.49343 26.8142 7.34145C27.3052 7.18948 27.8254 7.11349 28.369 7.11349C28.6145 7.11349 28.8366 7.11934 29.0237 7.13687C29.2107 7.15441 29.3802 7.17195 29.5147 7.19533C29.6725 7.22455 29.8069 7.24793 29.918 7.27716C29.9414 7.20702 29.9472 7.14856 29.9472 7.1018C29.9472 7.01413 29.9004 6.93814 29.8069 6.87384C29.7134 6.80955 29.5907 6.76863 29.4445 6.73356C29.2984 6.69849 29.1172 6.68096 28.9185 6.66927C28.7197 6.65758 28.5152 6.64589 28.3106 6.64589C27.843 6.64589 27.3812 6.69849 26.9136 6.79786C26.446 6.89722 26.031 7.06089 25.6627 7.27131C25.5108 7.01997 25.388 6.69849 25.3004 6.30687C25.2127 5.91525 25.1601 5.51778 25.1601 5.11447C25.1601 4.92158 25.1718 4.72869 25.1951 4.5358C25.2185 4.34291 25.2711 4.16756 25.3413 4.01559C25.5166 3.93376 25.7446 3.84024 26.0251 3.74087C26.3057 3.6415 26.6272 3.54798 26.9896 3.46615C27.352 3.38432 27.7611 3.30833 28.1995 3.24403C28.6379 3.17974 29.1172 3.15051 29.6199 3.15051C30.5025 3.15051 31.274 3.24988 31.9345 3.44861C32.595 3.64735 33.1445 3.93376 33.5829 4.30784C34.0212 4.68193 34.3486 5.13785 34.5707 5.68729C34.7928 6.23673 34.898 6.84462 34.898 7.53434V9.5509L34.9214 9.55675ZM29.5907 10.0594C29.4328 10.0594 29.3218 10.1003 29.2575 10.1763C29.1932 10.2523 29.1581 10.3458 29.1581 10.451C29.1581 10.5855 29.2049 10.6849 29.3042 10.7375C29.4036 10.7901 29.5205 10.8193 29.6608 10.8193C29.8829 10.8193 30.0466 10.7667 30.1635 10.6556C30.2804 10.5446 30.3388 10.3458 30.3388 10.0594H29.5907Z" fill="#082F1E"/>
<path d="M38.0663 3.4136C38.3527 3.4136 38.5982 3.46621 38.7911 3.56557C38.984 3.66494 39.1593 3.79938 39.3113 3.95719C39.0074 4.23776 38.8613 4.47156 38.8613 4.65861C38.8613 4.74044 38.8905 4.81642 38.9431 4.88072C38.9957 4.94502 39.0892 4.98009 39.2178 4.98009C39.3522 4.74044 39.5334 4.51248 39.7556 4.29037C39.9777 4.06825 40.2407 3.88121 40.5388 3.71755C40.8369 3.55388 41.1701 3.41944 41.5383 3.32008C41.9065 3.22071 42.2982 3.17395 42.7132 3.17395C43.2042 3.17395 43.7068 3.23825 44.2212 3.36684C44.7356 3.49543 45.1915 3.72339 45.6007 4.04487C46.0098 4.36635 46.3488 4.80473 46.606 5.36002C46.8632 5.9153 46.9976 6.61087 46.9976 7.45841C46.9976 7.7682 46.9976 8.11306 46.9801 8.49884C46.9626 8.88462 46.9626 9.24117 46.9626 9.56849C46.9626 10.0419 47.0152 10.4336 47.1145 10.7375C47.2139 11.0415 47.4126 11.287 47.699 11.4682C47.7049 11.5208 47.7107 11.5909 47.7107 11.6669V11.8481C47.7107 12.3332 47.6348 12.7658 47.4828 13.1399C47.3308 13.5139 47.1262 13.8237 46.869 14.0809C46.6119 14.3381 46.3079 14.5251 45.9572 14.6537C45.6065 14.7823 45.2441 14.8466 44.8525 14.8466C44.4433 14.8466 44.0517 14.7882 43.6776 14.6771C43.3035 14.5661 42.9762 14.379 42.6898 14.1218C42.4034 13.8646 42.1813 13.5315 42.0118 13.1165C41.8423 12.7015 41.7604 12.1929 41.7604 11.5909C41.7604 11.2694 41.7721 10.9655 41.7955 10.6791C41.8189 10.3927 41.8481 10.1238 41.8773 9.87244C41.9065 9.6211 41.9358 9.39314 41.965 9.17687C41.9942 8.9606 42.0059 8.76772 42.0059 8.59236C42.0059 8.26504 41.9708 8.03708 41.9007 7.92018C41.8306 7.80327 41.7137 7.73898 41.5558 7.73898C41.4506 7.73898 41.3571 7.7682 41.2694 7.82081L41.4039 9.49835C41.3688 9.70293 41.3396 9.91336 41.3162 10.1179C41.2928 10.3225 41.2753 10.5212 41.2577 10.7083C41.2402 10.8953 41.2344 11.059 41.2285 11.211C41.2227 11.3629 41.2168 11.4857 41.2168 11.5792C41.2168 12.1111 41.2694 12.5553 41.3746 12.906C41.4799 13.2568 41.6026 13.5549 41.737 13.812C41.4331 14.1277 41.0415 14.379 40.5622 14.5661C40.0829 14.7531 39.5276 14.8466 38.9139 14.8466C38.6041 14.8466 38.2943 14.7999 37.9728 14.7122C37.6513 14.6245 37.3649 14.4901 37.1077 14.3089C36.8505 14.1277 36.6401 13.8997 36.4764 13.6308C36.3128 13.362 36.231 13.0405 36.231 12.6722V7.69806C36.0264 7.41165 35.8744 7.08433 35.775 6.72193C35.6757 6.35953 35.6289 5.9796 35.6289 5.58213C35.6289 5.25481 35.6757 4.89241 35.775 4.49494C35.8744 4.09748 36.0264 3.74677 36.231 3.43698H38.0605L38.0663 3.4136Z" fill="#082F1E"/>
<path d="M48.7397 8.14812H49.3769C49.5522 8.14812 49.6866 8.11889 49.7685 8.05459C49.8503 7.9903 49.8912 7.90847 49.8912 7.8091C49.8912 7.76818 49.8854 7.72727 49.8678 7.68635H47.5649C47.4889 7.44086 47.4304 7.16614 47.3954 6.86804C47.3603 6.56994 47.3369 6.26599 47.3369 5.9562C47.3369 5.75747 47.3486 5.52951 47.372 5.27232C47.3954 5.01514 47.4304 4.79887 47.4713 4.62936C47.7578 4.45401 48.0442 4.26112 48.3306 4.05654C48.617 3.85196 48.8683 3.66492 49.0846 3.50126C49.1489 3.35513 49.219 3.16809 49.3009 2.93428C49.3827 2.70048 49.4645 2.46083 49.5464 2.20364C49.6282 1.94646 49.71 1.70681 49.7802 1.46716C49.8503 1.22751 49.9204 1.03462 49.9731 0.876806C50.1952 0.8242 50.4816 0.771594 50.844 0.730678C51.2064 0.689762 51.5746 0.666382 51.9545 0.666382C52.2468 0.666382 52.5449 0.683917 52.843 0.718988C53.1411 0.754058 53.4684 0.806664 53.825 0.882651V3.40189H55.6019C55.8006 3.70584 55.9467 4.03901 56.0461 4.41309C56.1455 4.78718 56.1922 5.15542 56.1922 5.52951C56.1922 5.88021 56.1455 6.24846 56.0461 6.64592C55.9467 7.04339 55.8006 7.38241 55.6019 7.66882H54.1348V9.21777C54.1348 9.69122 54.2283 10.0302 54.4212 10.229C54.6141 10.4277 54.8829 10.5329 55.2336 10.5329H55.6779C55.7305 10.7375 55.7831 10.9596 55.824 11.1876C55.8649 11.4155 55.8883 11.6552 55.8883 11.889C55.8883 12.8417 55.5902 13.5665 54.994 14.0692C54.3978 14.5719 53.5503 14.8174 52.4455 14.8174C51.8902 14.8174 51.3876 14.7414 50.9316 14.5894C50.4757 14.4374 50.0841 14.2095 49.7568 13.8997C49.4295 13.5899 49.1723 13.2041 48.9969 12.7424C48.8216 12.2806 48.728 11.7312 48.728 11.1057V8.13643L48.7397 8.14812Z" fill="#082F1E"/>
<path d="M4.27594 19.6221C4.62664 19.6221 4.92474 19.6863 5.15855 19.8091C5.39235 19.9318 5.60862 20.0955 5.78982 20.2884C5.42158 20.6333 5.23453 20.9138 5.23453 21.1418C5.23453 21.2411 5.26961 21.3347 5.3339 21.4107C5.3982 21.4925 5.5151 21.5276 5.67292 21.5276C5.84243 21.2353 6.047 20.9606 6.29834 20.6976C6.54968 20.4404 6.84778 20.2124 7.19264 20.0137C7.53751 19.8149 7.92913 19.663 8.36751 19.5402C8.80589 19.4233 9.29688 19.3649 9.84048 19.3649C10.2613 19.3649 10.6471 19.4175 11.0037 19.5168C11.3602 19.6162 11.6817 19.7448 11.9622 19.9085C12.2487 20.0663 12.4883 20.2416 12.6929 20.4287C12.8975 20.6157 13.0553 20.8028 13.1722 20.9898C13.3709 20.7209 13.6047 20.4871 13.8736 20.2825C14.1425 20.078 14.4289 19.9085 14.7328 19.774C15.0368 19.6396 15.3583 19.5402 15.6914 19.4701C16.0246 19.4058 16.3578 19.3707 16.6851 19.3707C17.4566 19.3707 18.1347 19.4935 18.725 19.7331C19.3154 19.9786 19.8122 20.3235 20.2155 20.7794C20.6188 21.2353 20.9228 21.7906 21.1332 22.4394C21.3436 23.0882 21.4489 23.8188 21.4489 24.6313C21.4489 25.0054 21.443 25.4204 21.4255 25.8646C21.4079 26.3089 21.4021 26.7297 21.4021 27.133C21.4021 27.7117 21.4664 28.1968 21.5891 28.5943C21.7119 28.9918 21.9515 29.3015 22.3022 29.5178C22.3081 29.5821 22.3139 29.6581 22.3139 29.7341V29.9211C22.3139 30.5173 22.2204 31.0434 22.0334 31.4993C21.8463 31.9552 21.5891 32.341 21.2735 32.6508C20.9579 32.9606 20.5838 33.1944 20.1571 33.3464C19.7304 33.4983 19.2803 33.5802 18.801 33.5802C18.2983 33.5802 17.819 33.5159 17.3631 33.3814C16.9072 33.247 16.5039 33.0249 16.159 32.7151C15.8142 32.4053 15.5336 32.002 15.329 31.4993C15.1245 30.9966 15.0192 30.377 15.0192 29.6406V25.6717C15.0192 25.1106 14.8322 24.83 14.464 24.83C14.4055 24.83 14.3412 24.8417 14.2769 24.8593C14.2126 24.8826 14.16 24.906 14.1249 24.9294L14.3529 26.7998V29.6406C14.3529 30.1842 14.3938 30.6751 14.4756 31.1018C14.5575 31.5344 14.7036 31.9085 14.914 32.2241C14.5049 32.6625 14.0022 32.9957 13.4001 33.2295C12.8039 33.4633 12.1961 33.5802 11.5882 33.5802C11.1439 33.5802 10.7231 33.5276 10.3198 33.4165C9.91646 33.3054 9.55991 33.1184 9.25012 32.8495C8.94033 32.5806 8.69484 32.2241 8.51364 31.7682C8.33244 31.3181 8.24476 30.7511 8.24476 30.0731V25.6659C8.24476 25.1048 8.05772 24.8242 7.68948 24.8242C7.63103 24.8242 7.56673 24.8359 7.50244 24.8534C7.43814 24.8768 7.38553 24.9002 7.35046 24.9236L7.57842 26.794V30.1199C7.57842 30.5699 7.6018 30.9674 7.64856 31.3064C7.69532 31.6454 7.79469 31.9728 7.95835 32.2942C7.59011 32.68 7.11081 32.9898 6.52046 33.2178C5.9301 33.4457 5.25792 33.5626 4.5039 33.5626C4.11227 33.5626 3.72065 33.51 3.32903 33.399C2.93741 33.2879 2.59255 33.1242 2.28276 32.8963C1.97297 32.6683 1.72163 32.3878 1.52874 32.0487C1.33585 31.7097 1.24233 31.3064 1.24233 30.8388V24.8359C0.990989 24.4852 0.803945 24.0877 0.681198 23.6435C0.558451 23.1993 0.5 22.7375 0.5 22.2523C0.5 21.849 0.558451 21.4048 0.681198 20.9197C0.803945 20.4345 0.990989 20.002 1.24233 19.6279H4.27009L4.27594 19.6221Z" fill="#082F1E"/>
<path d="M35.442 27.1271C35.442 27.7058 35.5063 28.1792 35.6291 28.5591C35.7518 28.9391 35.9914 29.2313 36.3422 29.4534C36.348 29.5177 36.3538 29.5996 36.3538 29.6989V29.9211C36.3538 30.5582 36.2545 31.1076 36.0499 31.5635C35.8512 32.0253 35.5881 32.4052 35.2667 32.6975C34.9452 32.9956 34.5769 33.2118 34.1678 33.358C33.7586 33.4983 33.3378 33.5742 32.9111 33.5742C32.6071 33.5742 32.3149 33.5392 32.0285 33.469C31.7421 33.3989 31.4673 33.2937 31.2102 33.1476C30.953 33.0073 30.725 32.8261 30.5204 32.604C30.3159 32.3818 30.1522 32.1188 30.0353 31.8207C29.895 31.8207 29.7839 31.8558 29.7138 31.9318C29.6437 32.0078 29.6086 32.1071 29.6086 32.2357C29.6086 32.3526 29.6437 32.4812 29.7197 32.6098C29.7956 32.7442 29.9009 32.8845 30.047 33.0248C29.7781 33.2118 29.4216 33.3463 28.9656 33.4398C28.5097 33.5333 28.0538 33.5801 27.5862 33.5801C26.8263 33.5801 26.1308 33.4749 25.5053 33.2645C24.8799 33.054 24.348 32.7442 23.8979 32.3351C23.4479 31.9259 23.103 31.4232 22.8575 30.8329C22.612 30.2425 22.4893 29.5645 22.4893 28.7929C22.4893 28.0214 22.6237 27.3083 22.8867 26.7296C23.1498 26.1451 23.5063 25.6658 23.9622 25.2859C24.4123 24.906 24.9384 24.6254 25.5404 24.4383C26.1366 24.2571 26.7737 24.1636 27.4401 24.1636C27.744 24.1636 28.007 24.1753 28.2467 24.1929C28.4805 24.2162 28.6792 24.2396 28.8487 24.263C29.0416 24.2981 29.2053 24.3273 29.3397 24.3624C29.3631 24.2805 29.3748 24.2104 29.3748 24.1461C29.3748 24.035 29.3163 23.9474 29.2053 23.8714C29.0942 23.7954 28.9423 23.7369 28.7611 23.7019C28.574 23.6668 28.3636 23.6376 28.1181 23.62C27.8726 23.6025 27.6271 23.5967 27.3758 23.5967C26.8088 23.5967 26.236 23.6609 25.669 23.7837C25.102 23.9064 24.5877 24.0993 24.1376 24.3624C23.9505 24.0526 23.8044 23.6609 23.6933 23.1816C23.5823 22.7024 23.5238 22.2172 23.5238 21.7262C23.5238 21.4924 23.5355 21.2528 23.5706 21.019C23.5998 20.7793 23.6583 20.5689 23.7518 20.3877C23.9681 20.2883 24.2486 20.1773 24.5877 20.0545C24.9267 19.9318 25.3183 19.8207 25.7684 19.7155C26.2184 19.6103 26.7094 19.5226 27.253 19.4466C27.7966 19.3706 28.3753 19.3356 28.9949 19.3356C30.0762 19.3356 31.0173 19.4583 31.8297 19.698C32.6364 19.9435 33.3085 20.2883 33.8463 20.7442C34.384 21.2002 34.7815 21.7613 35.0504 22.4276C35.3193 23.094 35.4537 23.8421 35.4537 24.6838V27.1446L35.442 27.1271ZM28.9247 27.7467C28.7318 27.7467 28.5974 27.7934 28.5156 27.8928C28.4337 27.9922 28.3987 28.0974 28.3987 28.226C28.3987 28.3955 28.4571 28.5124 28.5799 28.5767C28.7026 28.641 28.8429 28.676 29.0124 28.676C29.2813 28.676 29.4858 28.6118 29.6261 28.4773C29.7664 28.3429 29.8424 28.1032 29.8424 27.7467H28.9247Z" fill="#082F1E"/>
<path d="M37.6394 25.4087H38.4168C38.6331 25.4087 38.7909 25.3737 38.8961 25.2977C39.0013 25.2217 39.0481 25.1223 39.0481 24.9937C39.0481 24.9411 39.0422 24.8944 39.0247 24.8418H36.2132C36.1197 24.5378 36.0495 24.2105 36.0086 23.8422C35.9619 23.4798 35.9385 23.1058 35.9385 22.7317C35.9385 22.4862 35.9502 22.2115 35.9852 21.8958C36.0145 21.5802 36.0554 21.323 36.1021 21.1126C36.4528 20.8963 36.8036 20.6625 37.1484 20.4112C37.4933 20.1598 37.8031 19.9319 38.0719 19.7331C38.1479 19.5578 38.2356 19.3298 38.335 19.0434C38.4343 18.757 38.5337 18.4589 38.6389 18.1491C38.7383 17.8393 38.8377 17.5412 38.9253 17.249C39.0188 16.9625 39.0948 16.7171 39.165 16.5242C39.4338 16.4599 39.7904 16.4014 40.2346 16.3488C40.6789 16.2962 41.1289 16.2728 41.5907 16.2728C41.9531 16.2728 42.3155 16.2962 42.6779 16.3371C43.0403 16.378 43.4436 16.4482 43.8761 16.5359V19.6104H46.0505C46.296 19.9786 46.4772 20.3936 46.5941 20.8495C46.7168 21.3055 46.7753 21.7614 46.7753 22.2115C46.7753 22.6381 46.7168 23.0941 46.5941 23.5734C46.4714 24.0527 46.2902 24.4735 46.0505 24.8242H44.2561V26.718C44.2561 27.2967 44.373 27.7059 44.6068 27.9572C44.8406 28.2027 45.1737 28.3254 45.6004 28.3254H46.1382C46.2025 28.5768 46.2668 28.8456 46.3194 29.1321C46.372 29.4185 46.4012 29.699 46.4012 29.9854C46.4012 31.1486 46.0388 32.0371 45.3082 32.645C44.5775 33.2587 43.543 33.5626 42.1927 33.5626C41.5147 33.5626 40.8951 33.4691 40.3398 33.2879C39.7846 33.1067 39.3053 32.8262 38.9019 32.4462C38.4986 32.0663 38.1888 31.5987 37.9726 31.0317C37.7563 30.4647 37.6452 29.7984 37.6452 29.0268V25.397L37.6394 25.4087Z" fill="#082F1E"/>
<path d="M54.339 33.7321C53.1934 33.7321 52.1529 33.5684 51.2236 33.2353C50.2942 32.9021 49.4992 32.4286 48.8446 31.8032C48.1899 31.1778 47.6814 30.4179 47.3249 29.5236C46.9683 28.6293 46.793 27.6181 46.793 26.4959C46.793 25.3152 46.9859 24.2747 47.3658 23.3687C47.7457 22.4627 48.2601 21.7087 48.9089 21.095C49.5577 20.4813 50.3117 20.0253 51.1768 19.7155C52.036 19.4058 52.9479 19.2538 53.9006 19.2538C54.9118 19.2538 55.8237 19.3999 56.6361 19.698C57.4486 19.9961 58.1383 20.4053 58.717 20.9196C59.2898 21.4399 59.734 22.0477 60.0438 22.7433C60.3536 23.4389 60.5056 24.1812 60.5056 24.9645C60.5056 25.7068 60.3711 26.3497 60.1081 26.8875C59.8451 27.4252 59.4768 27.8636 59.0092 28.2143C58.5416 28.5592 57.9863 28.8222 57.3375 28.9859C56.6946 29.1554 55.9932 29.2372 55.2391 29.2372C54.6722 29.2372 54.1169 29.1729 53.585 29.0385C53.0531 28.9041 52.5972 28.7229 52.2231 28.5007C52.1822 28.5358 52.1529 28.5767 52.1412 28.6352C52.1295 28.6878 52.1237 28.7404 52.1237 28.7813C52.1237 28.9041 52.2172 29.0326 52.3984 29.1495C52.5796 29.2723 52.8193 29.3775 53.1115 29.4769C53.4038 29.5762 53.737 29.6522 54.1169 29.7165C54.4968 29.7808 54.8709 29.81 55.245 29.81C55.7652 29.81 56.2387 29.775 56.6653 29.7048C57.092 29.6347 57.4778 29.547 57.8168 29.4418C58.1559 29.3366 58.4481 29.2197 58.6994 29.0969C58.9508 28.9742 59.1612 28.8514 59.3249 28.7345C59.4359 28.8281 59.5295 28.9625 59.6054 29.1437C59.6873 29.3249 59.7516 29.5236 59.81 29.7399C59.8685 29.9562 59.9094 30.1841 59.9445 30.4121C59.9737 30.64 59.9912 30.8563 59.9912 31.0434C59.9912 31.2304 59.9795 31.4174 59.962 31.587C59.9386 31.7565 59.9152 31.9084 59.8802 32.0312C59.6113 32.2591 59.319 32.4754 59.0034 32.68C58.6878 32.8846 58.3078 33.0658 57.8753 33.2177C57.4369 33.3697 56.9342 33.4983 56.3614 33.5918C55.7886 33.6853 55.1105 33.738 54.3331 33.738L54.339 33.7321ZM54.1753 25.2333C54.3858 25.2333 54.5436 25.1866 54.6488 25.0989C54.754 25.0112 54.8066 24.8943 54.8066 24.754C54.8066 24.5845 54.7482 24.4676 54.6254 24.4033C54.5027 24.339 54.3565 24.304 54.1929 24.304C53.9591 24.304 53.772 24.3683 53.6317 24.4968C53.4915 24.6254 53.4096 24.8008 53.3746 25.0171C53.4564 25.0697 53.5674 25.1164 53.7019 25.1632C53.8363 25.2099 53.9941 25.2333 54.1812 25.2333H54.1753Z" fill="#082F1E"/>
</g>
<defs>
<clipPath id="clip0_288_6479">
<rect width="60.0058" height="33.7379" fill="white" transform="translate(0.5)"/>
</clipPath>
</defs>
</svg>
