<svg width="24" height="20" viewBox="0 0 24 20" fill="none" xmlns="http://www.w3.org/2000/svg">
<path d="M12.0003 19.9998C11.8467 20.0007 11.6945 19.9712 11.5524 19.9132C11.4102 19.8551 11.2809 19.7696 11.1719 19.6614L2.10692 10.5848C0.969846 9.43582 0.332031 7.8846 0.332031 6.26811C0.332031 4.65161 0.969846 3.1004 2.10692 1.95144C3.2529 0.808705 4.80523 0.166992 6.42359 0.166992C8.04195 0.166992 9.59429 0.808705 10.7403 1.95144L12.0003 3.21144L13.2603 1.95144C14.4062 0.808705 15.9586 0.166992 17.5769 0.166992C19.1953 0.166992 20.7476 0.808705 21.8936 1.95144C23.0307 3.1004 23.6685 4.65161 23.6685 6.26811C23.6685 7.8846 23.0307 9.43582 21.8936 10.5848L12.8286 19.6614C12.7196 19.7696 12.5903 19.8551 12.4481 19.9132C12.306 19.9712 12.1538 20.0007 12.0003 19.9998ZM6.42359 2.49978C5.92971 2.49754 5.4403 2.59332 4.9837 2.78157C4.5271 2.96981 4.11239 3.24679 3.76359 3.59644C3.05899 4.30475 2.66347 5.2632 2.66347 6.26228C2.66347 7.26135 3.05899 8.2198 3.76359 8.92811L12.0003 17.1764L20.2369 8.92811C20.9415 8.2198 21.337 7.26135 21.337 6.26228C21.337 5.2632 20.9415 4.30475 20.2369 3.59644C19.5179 2.9171 18.5661 2.53862 17.5769 2.53862C16.5877 2.53862 15.636 2.9171 14.9169 3.59644L12.8286 5.69644C12.7201 5.80579 12.5911 5.89259 12.4489 5.95182C12.3068 6.01105 12.1543 6.04154 12.0003 6.04154C11.8462 6.04154 11.6938 6.01105 11.5516 5.95182C11.4094 5.89259 11.2804 5.80579 11.1719 5.69644L9.08359 3.59644C8.73479 3.24679 8.32008 2.96981 7.86348 2.78157C7.40688 2.59332 6.91747 2.49754 6.42359 2.49978Z" fill="#0A2016"/>
</svg>
