<svg width="17" height="17" viewBox="0 0 17 17" fill="none" xmlns="http://www.w3.org/2000/svg">
<path d="M6.8833 13.377C8.26953 13.377 9.54785 12.9287 10.5938 12.1816L14.5283 16.1162C14.7109 16.2988 14.9517 16.3901 15.209 16.3901C15.7485 16.3901 16.1304 15.9751 16.1304 15.4438C16.1304 15.1948 16.0474 14.9541 15.8647 14.7798L11.9551 10.8618C12.7769 9.78271 13.2666 8.44629 13.2666 6.99365C13.2666 3.48242 10.3945 0.610352 6.8833 0.610352C3.38037 0.610352 0.5 3.47412 0.5 6.99365C0.5 10.5049 3.37207 13.377 6.8833 13.377ZM6.8833 11.999C4.14404 11.999 1.87793 9.73291 1.87793 6.99365C1.87793 4.25439 4.14404 1.98828 6.8833 1.98828C9.62256 1.98828 11.8887 4.25439 11.8887 6.99365C11.8887 9.73291 9.62256 11.999 6.8833 11.999Z" fill="#103B28"/>
</svg>
