<svg width="13" height="19" viewBox="0 0 13 19" fill="none" xmlns="http://www.w3.org/2000/svg">
<path d="M6.56445 12.2231C8.21631 12.2231 9.32861 10.9863 9.32861 9.21826V3.66504C9.32861 1.88867 8.21631 0.660156 6.56445 0.660156C4.9043 0.660156 3.79199 1.88867 3.79199 3.66504V9.21826C3.79199 10.9863 4.9043 12.2231 6.56445 12.2231ZM0.621094 9.35107C0.621094 12.605 2.771 14.8877 5.93359 15.1533V17.0874H2.854C2.50537 17.0874 2.22314 17.3696 2.22314 17.7183C2.22314 18.0669 2.50537 18.3408 2.854 18.3408H10.2666C10.6152 18.3408 10.8975 18.0669 10.8975 17.7183C10.8975 17.3696 10.6152 17.0874 10.2666 17.0874H7.18701V15.1533C10.3579 14.8877 12.4995 12.605 12.4995 9.35107V7.66602C12.4995 7.31738 12.2256 7.04346 11.877 7.04346C11.5283 7.04346 11.2461 7.31738 11.2461 7.66602V9.30127C11.2461 12.1318 9.40332 14.0078 6.56445 14.0078C3.71729 14.0078 1.87451 12.1318 1.87451 9.30127V7.66602C1.87451 7.31738 1.60059 7.04346 1.24365 7.04346C0.89502 7.04346 0.621094 7.31738 0.621094 7.66602V9.35107Z" fill="#103B28"/>
</svg>
