<svg width="33" height="32" viewBox="0 0 33 32" fill="none" xmlns="http://www.w3.org/2000/svg">
<g clip-path="url(#clip0_597_21270)">
<path d="M24.5 5.33341H23.1667V4.00008C23.1667 3.64646 23.0262 3.30732 22.7761 3.05727C22.5261 2.80722 22.187 2.66675 21.8333 2.66675C21.4797 2.66675 21.1406 2.80722 20.8905 3.05727C20.6405 3.30732 20.5 3.64646 20.5 4.00008V5.33341H12.5V4.00008C12.5 3.64646 12.3595 3.30732 12.1095 3.05727C11.8594 2.80722 11.5203 2.66675 11.1667 2.66675C10.813 2.66675 10.4739 2.80722 10.2239 3.05727C9.97381 3.30732 9.83333 3.64646 9.83333 4.00008V5.33341H8.5C7.43913 5.33341 6.42172 5.75484 5.67157 6.50499C4.92143 7.25513 4.5 8.27255 4.5 9.33341V25.3334C4.5 26.3943 4.92143 27.4117 5.67157 28.1618C6.42172 28.912 7.43913 29.3334 8.5 29.3334H24.5C25.5609 29.3334 26.5783 28.912 27.3284 28.1618C28.0786 27.4117 28.5 26.3943 28.5 25.3334V9.33341C28.5 8.27255 28.0786 7.25513 27.3284 6.50499C26.5783 5.75484 25.5609 5.33341 24.5 5.33341V5.33341ZM8.5 8.00008H9.83333V9.33341C9.83333 9.68704 9.97381 10.0262 10.2239 10.2762C10.4739 10.5263 10.813 10.6667 11.1667 10.6667C11.5203 10.6667 11.8594 10.5263 12.1095 10.2762C12.3595 10.0262 12.5 9.68704 12.5 9.33341V8.00008H20.5V9.33341C20.5 9.68704 20.6405 10.0262 20.8905 10.2762C21.1406 10.5263 21.4797 10.6667 21.8333 10.6667C22.187 10.6667 22.5261 10.5263 22.7761 10.2762C23.0262 10.0262 23.1667 9.68704 23.1667 9.33341V8.00008H24.5C24.8536 8.00008 25.1928 8.14056 25.4428 8.39061C25.6929 8.64065 25.8333 8.97979 25.8333 9.33341V14.6667H7.16667V9.33341C7.16667 8.97979 7.30714 8.64065 7.55719 8.39061C7.80724 8.14056 8.14638 8.00008 8.5 8.00008V8.00008ZM24.5 26.6667H8.5C8.14638 26.6667 7.80724 26.5263 7.55719 26.2762C7.30714 26.0262 7.16667 25.687 7.16667 25.3334V17.3334H25.8333V25.3334C25.8333 25.687 25.6929 26.0262 25.4428 26.2762C25.1928 26.5263 24.8536 26.6667 24.5 26.6667Z" fill="#082F1E"/>
<path d="M11.1667 22.6667C11.9031 22.6667 12.5 22.0697 12.5 21.3333C12.5 20.597 11.9031 20 11.1667 20C10.4303 20 9.83337 20.597 9.83337 21.3333C9.83337 22.0697 10.4303 22.6667 11.1667 22.6667Z" fill="#082F1E"/>
<path d="M21.8333 20H16.5C16.1463 20 15.8072 20.1405 15.5572 20.3905C15.3071 20.6406 15.1666 20.9797 15.1666 21.3333C15.1666 21.687 15.3071 22.0261 15.5572 22.2761C15.8072 22.5262 16.1463 22.6667 16.5 22.6667H21.8333C22.1869 22.6667 22.5261 22.5262 22.7761 22.2761C23.0262 22.0261 23.1666 21.687 23.1666 21.3333C23.1666 20.9797 23.0262 20.6406 22.7761 20.3905C22.5261 20.1405 22.1869 20 21.8333 20Z" fill="#082F1E"/>
</g>
<defs>
<clipPath id="clip0_597_21270">
<rect width="32" height="32" fill="white" transform="translate(0.5)"/>
</clipPath>
</defs>
</svg>
