<svg width="32" height="32" viewBox="0 0 32 32" fill="none" xmlns="http://www.w3.org/2000/svg">
<path d="M10.6663 28H5.33301C4.97939 28 4.64025 27.8596 4.3902 27.6095C4.14015 27.3595 3.99967 27.0203 3.99967 26.6667V21.3334C3.99967 20.9798 3.8592 20.6406 3.60915 20.3906C3.3591 20.1405 3.01996 20 2.66634 20C2.31272 20 1.97358 20.1405 1.72353 20.3906C1.47348 20.6406 1.33301 20.9798 1.33301 21.3334V26.6667C1.33301 27.7276 1.75444 28.745 2.50458 29.4951C3.25473 30.2453 4.27214 30.6667 5.33301 30.6667H10.6663C11.02 30.6667 11.3591 30.5262 11.6091 30.2762C11.8592 30.0261 11.9997 29.687 11.9997 29.3334C11.9997 28.9797 11.8592 28.6406 11.6091 28.3906C11.3591 28.1405 11.02 28 10.6663 28ZM29.333 20C28.9794 20 28.6402 20.1405 28.3902 20.3906C28.1401 20.6406 27.9997 20.9798 27.9997 21.3334V26.6667C27.9997 27.0203 27.8592 27.3595 27.6091 27.6095C27.3591 27.8596 27.02 28 26.6663 28H21.333C20.9794 28 20.6402 28.1405 20.3902 28.3906C20.1402 28.6406 19.9997 28.9797 19.9997 29.3334C19.9997 29.687 20.1402 30.0261 20.3902 30.2762C20.6402 30.5262 20.9794 30.6667 21.333 30.6667H26.6663C27.7272 30.6667 28.7446 30.2453 29.4948 29.4951C30.2449 28.745 30.6663 27.7276 30.6663 26.6667V21.3334C30.6663 20.9798 30.5259 20.6406 30.2758 20.3906C30.0258 20.1405 29.6866 20 29.333 20ZM26.6663 1.33337H21.333C20.9794 1.33337 20.6402 1.47385 20.3902 1.7239C20.1402 1.97395 19.9997 2.31309 19.9997 2.66671C19.9997 3.02033 20.1402 3.35947 20.3902 3.60952C20.6402 3.85956 20.9794 4.00004 21.333 4.00004H26.6663C27.02 4.00004 27.3591 4.14052 27.6091 4.39056C27.8592 4.64061 27.9997 4.97975 27.9997 5.33337V10.6667C27.9997 11.0203 28.1401 11.3595 28.3902 11.6095C28.6402 11.8596 28.9794 12 29.333 12C29.6866 12 30.0258 11.8596 30.2758 11.6095C30.5259 11.3595 30.6663 11.0203 30.6663 10.6667V5.33337C30.6663 4.27251 30.2449 3.25509 29.4948 2.50495C28.7446 1.7548 27.7272 1.33337 26.6663 1.33337ZM2.66634 12C3.01996 12 3.3591 11.8596 3.60915 11.6095C3.8592 11.3595 3.99967 11.0203 3.99967 10.6667V5.33337C3.99967 4.97975 4.14015 4.64061 4.3902 4.39056C4.64025 4.14052 4.97939 4.00004 5.33301 4.00004H10.6663C11.02 4.00004 11.3591 3.85956 11.6091 3.60952C11.8592 3.35947 11.9997 3.02033 11.9997 2.66671C11.9997 2.31309 11.8592 1.97395 11.6091 1.7239C11.3591 1.47385 11.02 1.33337 10.6663 1.33337H5.33301C4.27214 1.33337 3.25473 1.7548 2.50458 2.50495C1.75444 3.25509 1.33301 4.27251 1.33301 5.33337V10.6667C1.33301 11.0203 1.47348 11.3595 1.72353 11.6095C1.97358 11.8596 2.31272 12 2.66634 12ZM13.333 6.66671H7.99967C7.64605 6.66671 7.30691 6.80718 7.05687 7.05723C6.80682 7.30728 6.66634 7.64642 6.66634 8.00004V13.3334C6.66634 13.687 6.80682 14.0261 7.05687 14.2762C7.30691 14.5262 7.64605 14.6667 7.99967 14.6667H13.333C13.6866 14.6667 14.0258 14.5262 14.2758 14.2762C14.5259 14.0261 14.6663 13.687 14.6663 13.3334V8.00004C14.6663 7.64642 14.5259 7.30728 14.2758 7.05723C14.0258 6.80718 13.6866 6.66671 13.333 6.66671ZM11.9997 12H9.33301V9.33337H11.9997V12ZM18.6663 14.6667H23.9997C24.3533 14.6667 24.6924 14.5262 24.9425 14.2762C25.1925 14.0261 25.333 13.687 25.333 13.3334V8.00004C25.333 7.64642 25.1925 7.30728 24.9425 7.05723C24.6924 6.80718 24.3533 6.66671 23.9997 6.66671H18.6663C18.3127 6.66671 17.9736 6.80718 17.7235 7.05723C17.4735 7.30728 17.333 7.64642 17.333 8.00004V13.3334C17.333 13.687 17.4735 14.0261 17.7235 14.2762C17.9736 14.5262 18.3127 14.6667 18.6663 14.6667ZM19.9997 9.33337H22.6663V12H19.9997V9.33337ZM13.333 17.3334H7.99967C7.64605 17.3334 7.30691 17.4738 7.05687 17.7239C6.80682 17.9739 6.66634 18.3131 6.66634 18.6667V24C6.66634 24.3537 6.80682 24.6928 7.05687 24.9429C7.30691 25.1929 7.64605 25.3334 7.99967 25.3334H13.333C13.6866 25.3334 14.0258 25.1929 14.2758 24.9429C14.5259 24.6928 14.6663 24.3537 14.6663 24V18.6667C14.6663 18.3131 14.5259 17.9739 14.2758 17.7239C14.0258 17.4738 13.6866 17.3334 13.333 17.3334ZM11.9997 22.6667H9.33301V20H11.9997V22.6667ZM18.6663 21.3334C19.02 21.3334 19.3591 21.1929 19.6091 20.9428C19.8592 20.6928 19.9997 20.3537 19.9997 20C20.3533 20 20.6924 19.8596 20.9425 19.6095C21.1925 19.3595 21.333 19.0203 21.333 18.6667C21.333 18.3131 21.1925 17.9739 20.9425 17.7239C20.6924 17.4738 20.3533 17.3334 19.9997 17.3334H18.6663C18.3127 17.3334 17.9736 17.4738 17.7235 17.7239C17.4735 17.9739 17.333 18.3131 17.333 18.6667V20C17.333 20.3537 17.4735 20.6928 17.7235 20.9428C17.9736 21.1929 18.3127 21.3334 18.6663 21.3334ZM23.9997 17.3334C23.6461 17.3334 23.3069 17.4738 23.0569 17.7239C22.8068 17.9739 22.6663 18.3131 22.6663 18.6667V22.6667C22.3127 22.6667 21.9736 22.8072 21.7235 23.0572C21.4735 23.3073 21.333 23.6464 21.333 24C21.333 24.3537 21.4735 24.6928 21.7235 24.9429C21.9736 25.1929 22.3127 25.3334 22.6663 25.3334H23.9997C24.3533 25.3334 24.6924 25.1929 24.9425 24.9429C25.1925 24.6928 25.333 24.3537 25.333 24V18.6667C25.333 18.3131 25.1925 17.9739 24.9425 17.7239C24.6924 17.4738 24.3533 17.3334 23.9997 17.3334ZM18.6663 22.6667C18.4026 22.6667 18.1448 22.7449 17.9256 22.8914C17.7063 23.0379 17.5354 23.2462 17.4345 23.4898C17.3336 23.7334 17.3072 24.0015 17.3586 24.2602C17.4101 24.5188 17.5371 24.7564 17.7235 24.9429C17.91 25.1293 18.1476 25.2563 18.4062 25.3078C18.6649 25.3592 18.933 25.3328 19.1766 25.2319C19.4202 25.131 19.6285 24.9601 19.775 24.7408C19.9215 24.5215 19.9997 24.2637 19.9997 24C19.9997 23.6464 19.8592 23.3073 19.6091 23.0572C19.3591 22.8072 19.02 22.6667 18.6663 22.6667Z" fill="#082F1E"/>
</svg>
