<svg width="28" height="28" viewBox="0 0 28 28" fill="none" xmlns="http://www.w3.org/2000/svg">
<g clip-path="url(#clip0_377_17434)">
<path d="M7.10501 24.57C6.79559 24.57 6.49884 24.4471 6.28005 24.2283C6.06126 24.0095 5.93834 23.7128 5.93834 23.4033L5.76334 6.3C5.74929 5.95274 5.80404 5.60612 5.92443 5.28009C6.04482 4.95406 6.22848 4.65504 6.46484 4.40025C6.70121 4.14545 6.98561 3.9399 7.3017 3.79541C7.61779 3.65092 7.95933 3.57035 8.30667 3.55833L19.495 3.5C19.8428 3.50607 20.186 3.58061 20.505 3.71934C20.824 3.85808 21.1125 4.05829 21.3541 4.30856C21.5957 4.55882 21.7856 4.85423 21.9131 5.17791C22.0405 5.50159 22.1029 5.8472 22.0967 6.195L22.26 23.2983C22.262 23.5028 22.2103 23.7041 22.1099 23.8823C22.0096 24.0604 21.8642 24.2091 21.6883 24.3133C21.511 24.4157 21.3098 24.4696 21.105 24.4696C20.9002 24.4696 20.699 24.4157 20.5217 24.3133L13.8717 20.6267L7.70001 24.395C7.51725 24.4971 7.31393 24.5569 7.10501 24.57ZM13.825 18.095C14.0277 18.0954 14.2275 18.1433 14.4083 18.235L19.9033 21.28L19.7633 6.17167C19.7633 5.93833 19.6117 5.775 19.5183 5.78667L8.31834 5.89167C8.22501 5.89167 8.09667 6.04333 8.09667 6.27667L8.23667 21.3267L13.23 18.2583C13.4114 18.1545 13.6161 18.0983 13.825 18.095Z" fill="#0A2016"/>
</g>
<defs>
<clipPath id="clip0_377_17434">
<rect width="28" height="28" fill="white"/>
</clipPath>
</defs>
</svg>
