<svg width="18" height="22" viewBox="0 0 18 22" fill="none" xmlns="http://www.w3.org/2000/svg">
<path d="M1.27961 21.2283C1.4984 21.4471 1.79514 21.57 2.10456 21.57C2.31349 21.5569 2.51681 21.4971 2.69956 21.395L8.87123 17.6267L15.5212 21.3133C15.6986 21.4157 15.8998 21.4696 16.1046 21.4696C16.3094 21.4696 16.5105 21.4157 16.6879 21.3133C16.8638 21.2091 17.0092 21.0604 17.1095 20.8823C17.2098 20.7041 17.2616 20.5028 17.2596 20.2983L17.0962 3.195C17.1024 2.8472 17.04 2.50159 16.9126 2.17791C16.7852 1.85423 16.5953 1.55882 16.3537 1.30856C16.1121 1.05829 15.8235 0.858077 15.5046 0.719342C15.1856 0.580608 14.8424 0.506075 14.4946 0.5L3.30623 0.558333C2.95889 0.570352 2.61735 0.650922 2.30126 0.795409C1.98517 0.939896 1.70076 1.14545 1.4644 1.40025C1.22803 1.65504 1.04437 1.95406 0.923984 2.28009C0.803594 2.60612 0.748849 2.95274 0.762897 3.3L0.937897 20.4033C0.937897 20.7128 1.06081 21.0095 1.27961 21.2283Z" fill="#0A2016"/>
</svg>
